name analog
datacolumns 19
datarows 47
range 0.0 0.023
endheader
time	ground_force_vx	ground_force_vy	ground_force_vz	ground_force_px	ground_force_py	ground_force_pz	l_ground_force_vx	l_ground_force_vy	l_ground_force_vz	l_ground_force_px	l_ground_force_py	l_ground_force_pz	ground_torque_x	ground_torque_y	ground_torque_z	l_ground_torque_x	l_ground_torque_y	l_ground_torque_z
0.0	-0.0	-0.0	-0.0	2.340965986251831	18.89564514160156	-368.8092346191406	6.497026443481445	-22.322961807250977	-428.41448974609375	-0.0	-0.0	-0.0	-0.0	-0.0	-0.0	118522.484375	-49327.3515625	681.2235717773438
0.0005	-0.0	-0.0	-0.0	1.8734207153320312	18.16008758544922	-369.6902160644531	6.099789142608643	-21.77068328857422	-429.3679809570313	-0.0	-0.0	-0.0	-0.0	-0.0	-0.0	118821.6796875	-49160.6171875	562.4251708984375
0.001	-0.0	-0.0	-0.0	2.9423141479492188	17.447072982788086	-371.0139465332031	6.1199212074279785	-21.417449951171875	-430.15478515625	-0.0	-0.0	-0.0	-0.0	-0.0	-0.0	119051.7265625	-49232.15625	318.0824890136719
0.0015	-0.0	-0.0	-0.0	3.2347071170806885	17.179719924926758	-371.7231750488281	5.922171115875244	-21.21759796142578	-432.0732116699219	-0.0	-0.0	-0.0	-0.0	-0.0	-0.0	119370.484375	-49140.21875	65.3238296508789
0.002	-0.0	-0.0	-0.0	3.8809099197387695	16.62206268310547	-370.132568359375	5.811777114868164	-20.40230941772461	-431.46331787109375	-0.0	-0.0	-0.0	-0.0	-0.0	-0.0	119391.015625	-48927.375	36.09922409057617
0.0025	-0.0	-0.0	-0.0	4.438520908355713	16.244115829467773	-371.4581909179688	5.788555145263672	-20.15819549560547	-432.07373046875	-0.0	-0.0	-0.0	-0.0	-0.0	-0.0	119427.3515625	-48856.703125	-119.6595230102539
0.003	-0.0	-0.0	-0.0	4.482888698577881	16.555912017822266	-372.2516479492188	5.721570014953613	-20.159013748168945	-431.9884033203125	-0.0	-0.0	-0.0	-0.0	-0.0	-0.0	119576.03125	-48612.71875	-282.76739501953125
0.0035	-0.0	-0.0	-0.0	4.772718906402588	16.266342163085938	-370.30902099609375	5.566502571105957	-19.32027053833008	-433.2095031738281	-0.0	-0.0	-0.0	-0.0	-0.0	-0.0	120009.2578125	-48591.87109375	-319.9364318847656
0.004	-0.0	-0.0	-0.0	4.59431266784668	16.06574058532715	-371.0154113769531	5.83267068862915	-19.09988021850586	-433.2086181640625	-0.0	-0.0	-0.0	-0.0	-0.0	-0.0	120145.2734375	-48548.4609375	-393.77294921875
0.0045000000000000005	-0.0	-0.0	-0.0	4.415654182434082	15.30819034576416	-368.9849243164063	6.076756000518799	-18.61362838745117	-433.034912109375	-0.0	-0.0	-0.0	-0.0	-0.0	-0.0	120217.59375	-48651.265625	-475.03070068359375
0.005	-0.0	-0.0	-0.0	4.393867015838623	15.50902271270752	-370.0433044433594	6.165389537811279	-17.863075256347656	-433.5590515136719	-0.0	-0.0	-0.0	-0.0	-0.0	-0.0	120209.4921875	-48486.3515625	-556.3547973632812
0.0055	-0.0	-0.0	-0.0	4.34962272644043	14.995580673217772	-369.2505798339844	6.121044158935547	-17.443620681762695	-433.2964782714844	-0.0	-0.0	-0.0	-0.0	-0.0	-0.0	120549.25	-48183.45703125	-749.1381225585938
0.006	-0.0	-0.0	-0.0	3.9923155307769775	14.70651626586914	-371.0143737792969	6.387443065643311	-16.80313491821289	-433.8203430175781	-0.0	-0.0	-0.0	-0.0	-0.0	-0.0	120348.875	-48255.94140625	-630.1529541015625
0.006500000000000001	-0.0	-0.0	-0.0	4.349196434020996	14.707987785339355	-372.6924133300781	6.875717639923096	-16.472204208374023	-434.1692199707031	-0.0	-0.0	-0.0	-0.0	-0.0	-0.0	120446.296875	-48243.37890625	-874.4534912109375
0.007	-0.0	-0.0	-0.0	4.750236988067627	13.636951446533203	-373.12933349609375	6.497920989990234	-16.185951232910156	-435.1319274902344	-0.0	-0.0	-0.0	-0.0	-0.0	-0.0	120695.109375	-48292.9453125	-718.794677734375
0.0075	-0.0	-0.0	-0.0	4.727157115936279	13.325494766235352	-375.8786926269531	6.9648213386535645	-15.72126007080078	-436.3556213378906	-0.0	-0.0	-0.0	-0.0	-0.0	-0.0	121066.296875	-48470.625	-956.10498046875
0.008	-0.0	-0.0	-0.0	4.9737749099731445	13.145002365112305	-375.4348449707031	7.185573577880859	-15.191329956054688	-437.7430725097656	-0.0	-0.0	-0.0	-0.0	-0.0	-0.0	121483.6328125	-48239.8125	-925.9595947265624
0.0085	-0.0	-0.0	-0.0	4.906578063964844	13.038922309875488	-375.9626770019531	7.408839225769043	-15.235984802246094	-438.9660034179688	-0.0	-0.0	-0.0	-0.0	-0.0	-0.0	121883.734375	-48270.296875	-970.1810302734376
0.009000000000000001	-0.0	-0.0	-0.0	4.906578063964844	12.788087844848633	-377.5493774414063	7.207476615905762	-15.124814987182615	-440.4569091796875	-0.0	-0.0	-0.0	-0.0	-0.0	-0.0	122092.203125	-48281.0	-992.27734375
0.0095	-0.0	-0.0	-0.0	5.17263650894165	12.745647430419922	-377.2891540527344	7.518552303314209	-15.059471130371094	-441.0596008300781	-0.0	-0.0	-0.0	-0.0	-0.0	-0.0	122253.4765625	-48177.5390625	-1111.5081787109375
0.01	-0.0	-0.0	-0.0	5.01593017578125	12.478256225585938	-376.5763854980469	7.540416717529297	-15.016088485717772	-441.5909118652344	-0.0	-0.0	-0.0	-0.0	-0.0	-0.0	122831.2890625	-48161.0390625	-976.8938598632812
0.0105	-0.0	-0.0	-0.0	5.5092082023620605	12.056262969970703	-377.801513671875	7.73963737487793	-14.684611320495604	-443.330810546875	-0.0	-0.0	-0.0	-0.0	-0.0	-0.0	123059.84375	-47931.1875	-969.8494262695312
0.011	-0.0	-0.0	-0.0	5.2396240234375	11.6067476272583	-377.7220153808594	7.9421186447143555	-15.276328086853027	-444.5622253417969	-0.0	-0.0	-0.0	-0.0	-0.0	-0.0	123473.234375	-48211.60546875	-1014.6436767578124
0.0115	-0.0	-0.0	-0.0	5.106765270233154	10.917402267456056	-378.3503723144531	8.449246406555176	-15.169703483581545	-445.6956481933594	-0.0	-0.0	-0.0	-0.0	-0.0	-0.0	123798.1484375	-48020.6875	-909.555908203125
0.012	-0.0	-0.0	-0.0	4.99578857421875	10.739068984985352	-379.4012756347656	8.693656921386719	-15.54461669921875	-446.7356567382813	-0.0	-0.0	-0.0	-0.0	-0.0	-0.0	124347.6796875	-48111.47265625	-836.92529296875
0.0125	-0.0	-0.0	-0.0	5.106699466705322	10.541475296020508	-378.895263671875	8.936047554016113	-15.497342109680176	-447.61236572265625	-0.0	-0.0	-0.0	-0.0	-0.0	-0.0	124446.96875	-47807.046875	-857.838134765625
0.013000000000000001	-0.0	-0.0	-0.0	4.7931413650512695	9.691009521484377	-377.98828125	8.537853240966797	-15.518634796142578	-447.6886596679688	-0.0	-0.0	-0.0	-0.0	-0.0	-0.0	124710.6953125	-47536.78515625	-879.0643310546875
0.0135	-0.0	-0.0	-0.0	4.706534385681152	9.266843795776367	-380.2999572753906	8.736815452575684	-16.029193878173828	-449.8865966796875	-0.0	-0.0	-0.0	-0.0	-0.0	-0.0	124710.125	-47278.36328125	-932.67529296875
0.014	-0.0	-0.0	-0.0	4.241716384887695	8.642840385437012	-378.5866394042969	8.120763778686523	-15.916892051696776	-449.2635192871094	-0.0	-0.0	-0.0	-0.0	-0.0	-0.0	124799.8046875	-47094.03125	-1088.6285400390625
0.0145	-0.0	-0.0	-0.0	4.309598922729492	8.737743377685547	-377.8908081054688	7.723116397857666	-16.446630477905273	-451.198974609375	-0.0	-0.0	-0.0	-0.0	-0.0	-0.0	125278.5078125	-46930.34375	-1290.3941650390625
0.015	-0.0	-0.0	-0.0	4.1283278465271	8.605762481689453	-378.0729370117188	7.008152008056641	-16.34229278564453	-451.0193481445313	-0.0	-0.0	-0.0	-0.0	-0.0	-0.0	125220.625	-46411.0703125	-1400.55908203125
0.0155	-0.0	-0.0	-0.0	3.7103140354156494	8.464159965515137	-377.2940673828125	6.897988796234131	-16.583118438720703	-450.140869140625	-0.0	-0.0	-0.0	-0.0	-0.0	-0.0	125463.2734375	-46214.6328125	-1400.689453125
0.016	-0.0	-0.0	-0.0	2.744069814682007	8.421131134033203	-375.783447265625	6.968381404876709	-16.954721450805664	-451.0075988769531	-0.0	-0.0	-0.0	-0.0	-0.0	-0.0	125019.9609375	-46009.8203125	-1602.2308349609375
0.0165	-0.0	-0.0	-0.0	2.8119020462036133	8.378257751464844	-374.6250915527344	6.717433929443359	-16.997129440307617	-452.1513671875	-0.0	-0.0	-0.0	-0.0	-0.0	-0.0	125291.765625	-45704.55859375	-1638.2095947265625
0.017	-0.0	-0.0	-0.0	2.4050333499908447	8.349593162536621	-374.8230590820313	6.52522087097168	-17.512252807617188	-452.2353820800781	-0.0	-0.0	-0.0	-0.0	-0.0	-0.0	125301.9609375	-45261.68359375	-1617.052490234375
0.0175	-0.0	-0.0	-0.0	1.7377021312713623	8.2037992477417	-375.5298767089844	6.475887298583984	-17.992950439453125	-452.1513671875	-0.0	-0.0	-0.0	-0.0	-0.0	-0.0	125444.609375	-44931.62890625	-1624.361083984375
0.018000000000000002	-0.0	-0.0	-0.0	1.8947330713272093	8.798659324645996	-374.2863464355469	5.851284027099609	-17.96804428100586	-450.6710205078125	-0.0	-0.0	-0.0	-0.0	-0.0	-0.0	125080.40625	-44515.1640625	-1713.803955078125
0.0185	-0.0	-0.0	-0.0	1.7416390180587769	9.00217056274414	-376.13665771484375	5.968600749969482	-18.438081741333008	-450.5581359863281	-0.0	-0.0	-0.0	-0.0	-0.0	-0.0	124842.2734375	-44087.5859375	-1729.30517578125
0.019	-0.0	-0.0	-0.0	1.4103450775146484	9.312017440795898	-378.810546875	5.550257205963135	-18.05984878540039	-450.853515625	-0.0	-0.0	-0.0	-0.0	-0.0	-0.0	124290.5546875	-43833.7421875	-1959.7667236328125
0.0195	-0.0	-0.0	-0.0	0.93889981508255	9.29075050354004	-379.9376525878906	5.369024276733398	-18.682048797607425	-448.7431640625	-0.0	-0.0	-0.0	-0.0	-0.0	-0.0	124376.6484375	-43306.88671875	-2047.7454833984373
0.02	-0.0	-0.0	-0.0	0.8119329810142517	9.54598331451416	-382.745361328125	5.124093532562256	-18.42131805419922	-449.5409240722656	-0.0	-0.0	-0.0	-0.0	-0.0	-0.0	124029.65625	-42854.8984375	-2128.380859375
0.0205	-0.0	-0.0	-0.0	0.5610350966453552	8.997549057006836	-383.9066162109375	4.460933685302734	-18.417205810546875	-448.22760009765625	-0.0	-0.0	-0.0	-0.0	-0.0	-0.0	123981.328125	-42545.7109375	-2195.210205078125
0.021	-0.0	-0.0	-0.0	0.3452972769737243	9.84174346923828	-384.9472351074219	4.6384711265563965	-18.168869018554688	-447.9440307617188	-0.0	-0.0	-0.0	-0.0	-0.0	-0.0	123847.7734375	-42184.171875	-2276.916748046875
0.021500000000000002	-0.0	-0.0	-0.0	-0.4411158859729767	9.78954792022705	-386.1091003417969	4.566306591033936	-18.21978187561035	-449.358154296875	-0.0	-0.0	-0.0	-0.0	-0.0	-0.0	123948.78125	-41849.6015625	-2343.302001953125
0.022	-0.0	-0.0	-0.0	-0.9131462574005128	9.977563858032228	-385.1527404785156	4.858092308044434	-18.39650535583496	-449.9737854003906	-0.0	-0.0	-0.0	-0.0	-0.0	-0.0	124401.859375	-41603.65234375	-2419.623779296875
0.0225	-0.0	-0.0	-0.0	-1.758006572723389	10.365306854248049	-385.2987060546875	4.8951945304870605	-18.37574958801269	-450.5705871582031	-0.0	-0.0	-0.0	-0.0	-0.0	-0.0	124788.6171875	-41224.9453125	-2300.961669921875
0.023	-0.0	-0.0	-0.0	-2.125445604324341	10.407312393188477	-385.4853210449219	4.951895713806152	-18.24591827392578	-451.45306396484375	-0.0	-0.0	-0.0	-0.0	-0.0	-0.0	124463.8203125	-40883.0625	-2367.2392578125
